<?xml version="1.0" standalone="no"?>
<!DOCTYPE svg PUBLIC "-//W3C//DTD SVG 20010904//EN"
 "http://www.w3.org/TR/2001/REC-SVG-20010904/DTD/svg10.dtd">
<svg version="1.0" xmlns="http://www.w3.org/2000/svg"
 width="1224.000000pt" height="1224.000000pt" viewBox="0 0 1224.000000 1224.000000"
 preserveAspectRatio="xMidYMid meet">
<metadata>
Created by potrace 1.14, written by Peter Selinger 2001-2017
</metadata>
<g transform="translate(0.000000,1224.000000) scale(0.100000,-0.100000)"
fill="#000000" stroke="none">
<path d="M85 10133 c-16 -8 -41 -29 -55 -46 l-25 -31 0 -3592 0 -3593 21 -28
c11 -15 38 -37 60 -49 40 -20 49 -20 1100 -20 l1059 1 2 63 c1 34 -2 63 -5 63
-4 1 -476 2 -1050 3 -757 1 -1045 5 -1050 13 -5 8 -8 6964 -3 7079 l1 21 5976
0 c5442 0 5976 -2 5982 -16 9 -19 9 -7072 0 -7086 -4 -7 -410 -10 -1107 -10
-1095 0 -1101 0 -1102 -20 -1 -31 -1 -89 0 -101 1 -7 330 -10 1119 -10 1098 1
1118 1 1151 21 19 11 43 33 55 48 l21 28 3 3572 c3 3949 8 3626 -61 3678 l-32
24 -6015 2 c-5405 2 -6018 0 -6045 -14z"/>
<path d="M5170 9614 c-25 -7 -58 -26 -73 -42 -28 -29 -97 -138 -97 -153 0 -5
-4 -9 -10 -9 -5 0 -10 -5 -10 -11 0 -6 -22 -48 -50 -95 -27 -47 -50 -89 -50
-94 0 -6 -4 -10 -10 -10 -5 0 -10 -4 -10 -9 0 -7 -82 -153 -130 -231 -24 -40
-125 -216 -129 -225 -2 -5 -7 -12 -10 -15 -6 -5 -47 -79 -65 -117 -6 -13 -14
-23 -18 -23 -5 0 -8 -4 -8 -10 0 -5 -18 -39 -40 -75 -22 -36 -40 -70 -40 -75
0 -6 -4 -10 -8 -10 -4 0 -13 -12 -20 -27 -6 -16 -23 -46 -37 -68 -14 -22 -28
-47 -32 -55 -4 -8 -17 -32 -31 -53 -21 -35 -56 -96 -86 -152 -6 -11 -18 -31
-27 -45 -46 -72 -159 -272 -159 -280 0 -6 -4 -10 -10 -10 -5 0 -10 -4 -10 -10
0 -5 -38 -74 -85 -154 -47 -79 -85 -149 -85 -155 0 -6 -3 -11 -8 -11 -4 0 -18
-21 -31 -47 -14 -27 -32 -59 -42 -73 -9 -14 -27 -45 -41 -70 -73 -131 -151
-260 -157 -260 -4 0 -150 144 -326 321 -176 176 -334 329 -352 340 -56 35
-139 30 -204 -12 -25 -17 -40 -45 -172 -319 -125 -260 -201 -419 -271 -562
-36 -75 -66 -141 -66 -146 0 -5 -7 -15 -15 -22 -8 -6 -14 -15 -13 -18 1 -4
-22 -56 -52 -117 -29 -60 -54 -112 -55 -115 0 -3 -28 -61 -62 -130 -143 -293
-223 -462 -223 -471 0 -5 -5 -9 -12 -9 -6 0 -9 -3 -5 -6 3 -3 -10 -36 -28 -72
-36 -72 -124 -254 -380 -787 -34 -71 -90 -186 -123 -255 -85 -177 -93 -220
-56 -291 20 -39 33 -51 89 -81 l40 -21 3353 -1 c1843 -1 3352 2 3352 7 0 4 9
7 20 7 51 0 139 68 156 120 22 67 14 91 -93 290 -46 85 -87 162 -92 170 -4 8
-49 90 -99 182 -51 92 -109 200 -130 240 -49 91 -102 190 -159 292 -23 43 -43
81 -43 83 0 3 -9 18 -21 34 -11 16 -17 29 -14 29 3 0 -2 12 -13 28 -10 15 -26
41 -34 57 -14 28 -54 104 -118 220 -15 28 -47 86 -70 130 -24 44 -83 154 -133
245 -49 91 -106 197 -127 235 -35 65 -50 94 -135 250 -217 398 -267 492 -337
625 -12 25 -25 47 -28 50 -3 3 -18 30 -34 60 -15 30 -35 69 -45 85 -10 17 -44
80 -76 140 -32 61 -66 124 -75 140 -9 17 -36 66 -60 110 -23 44 -55 103 -70
130 -15 28 -46 84 -68 125 -21 41 -51 95 -64 120 -14 25 -42 77 -63 115 -20
39 -50 93 -65 120 -15 28 -49 91 -75 140 -27 50 -67 124 -89 165 -23 41 -48
89 -56 105 -8 17 -17 32 -20 35 -3 3 -18 30 -34 60 -31 61 -94 178 -136 255
-15 28 -45 82 -65 120 -45 85 -58 99 -98 118 -50 23 -88 26 -137 11z m99 -619
c20 -39 53 -99 73 -135 35 -64 82 -151 150 -280 19 -36 46 -85 60 -110 31 -55
123 -227 157 -295 14 -27 28 -52 31 -55 3 -3 20 -34 39 -70 18 -36 60 -113 92
-172 33 -59 59 -111 59 -116 0 -6 3 -12 8 -14 4 -1 29 -46 56 -98 27 -52 53
-96 57 -98 5 -2 9 -11 9 -21 0 -9 4 -21 9 -26 5 -6 24 -37 41 -70 41 -76 105
-196 140 -260 15 -27 43 -79 62 -115 73 -136 141 -261 208 -385 15 -27 49 -90
75 -140 26 -49 56 -103 65 -120 10 -16 38 -68 63 -115 24 -47 58 -110 74 -140
46 -84 164 -304 218 -405 27 -49 67 -124 90 -165 23 -41 48 -88 57 -105 8 -16
28 -55 45 -85 16 -30 67 -125 113 -210 45 -85 94 -175 108 -200 14 -25 24 -45
21 -45 -2 0 6 -14 19 -32 12 -17 22 -36 22 -41 0 -6 3 -12 8 -14 4 -1 27 -41
51 -88 24 -47 61 -117 82 -156 l39 -71 -720 0 c-654 0 -718 2 -710 16 5 9 38
56 73 105 l65 90 -2 705 c-1 776 3 725 -62 798 -27 29 -94 71 -94 58 0 -4 -6
-3 -12 2 -21 12 -81 11 -115 -3 -18 -7 -33 -10 -33 -7 0 4 -10 -3 -22 -14 -38
-34 -47 -35 -80 -11 -18 13 -47 29 -64 35 -60 20 -156 0 -206 -45 -16 -13 -21
-12 -55 11 -64 42 -129 53 -193 32 l-35 -12 0 320 c0 350 -4 384 -58 451 -88
109 -266 108 -356 -1 -57 -69 -57 -70 -57 -651 1 -474 -1 -532 -14 -532 -9 0
-20 4 -25 9 -16 16 -104 26 -204 26 -85 -1 -96 -4 -112 -24 -11 -14 -18 -39
-19 -69 0 -26 0 -56 -1 -67 0 -11 1 -54 2 -96 1 -41 -1 -81 -5 -87 -3 -6 -2
-13 2 -16 5 -3 6 -25 2 -50 -4 -24 -3 -51 1 -58 4 -8 4 -20 -1 -27 -4 -8 -5
-25 -1 -40 5 -14 6 -42 4 -61 -6 -46 -6 -51 0 -152 6 -114 28 -157 130 -257
159 -153 273 -263 324 -312 28 -27 54 -53 57 -57 3 -5 -780 -9 -1739 -9 -960
0 -1745 4 -1745 8 0 12 33 83 134 292 53 110 115 238 137 285 23 48 75 157
117 242 41 85 98 205 127 265 98 205 166 347 234 489 120 248 197 408 249 516
27 58 83 175 124 260 42 85 83 172 93 193 9 20 20 37 24 37 3 0 149 -144 324
-319 175 -176 332 -326 350 -334 46 -22 86 -26 134 -12 59 18 95 46 121 97 13
23 32 57 42 73 22 33 52 87 72 125 7 14 15 27 18 30 4 3 24 36 46 74 21 38 46
81 54 95 9 14 35 60 58 101 24 41 47 82 52 90 29 47 120 203 120 207 0 2 16
29 35 59 19 30 35 56 35 59 0 2 33 59 73 127 81 136 171 290 203 346 11 20 30
53 41 72 11 19 60 103 108 185 48 83 99 170 113 195 14 25 43 73 64 108 21 34
38 64 38 67 0 3 18 34 40 70 22 36 40 69 40 74 0 5 3 11 8 13 7 3 161 264 186
315 6 13 15 22 19 20 5 -1 25 -34 46 -72z m-42 -1977 c12 -6 30 -27 39 -46 14
-30 16 -88 16 -504 0 -466 0 -469 21 -492 18 -19 27 -21 51 -15 40 11 50 32
52 112 1 60 4 71 29 97 20 21 38 30 61 30 75 0 107 -38 109 -130 2 -71 10 -95
38 -107 53 -24 87 19 87 110 0 93 50 140 130 122 48 -11 70 -52 70 -132 0 -59
3 -72 23 -90 22 -20 43 -19 79 2 14 8 19 28 22 87 4 76 18 112 46 124 40 16
70 22 75 13 4 -5 14 -9 25 -9 11 0 25 -15 37 -38 17 -35 18 -73 18 -697 l0
-660 -43 -60 c-23 -33 -60 -85 -81 -115 -22 -30 -40 -60 -41 -66 0 -8 -119
-11 -414 -10 l-413 1 -69 67 c-144 139 -236 227 -354 338 -67 63 -129 129
-138 145 -14 26 -17 76 -17 368 l-1 337 62 0 c35 0 75 -5 91 -11 41 -15 81
-57 89 -93 4 -17 8 -138 8 -269 l1 -238 25 -19 c32 -25 42 -25 71 -1 l24 19 1
879 c1 955 -1 922 56 950 44 22 69 22 115 1z"/>
<path d="M5143 7778 c-32 -15 -36 -37 -35 -177 2 -140 10 -159 64 -156 51 3
58 23 58 169 0 72 -4 136 -8 142 -6 10 -47 35 -54 33 -2 0 -13 -5 -25 -11z"/>
<path d="M4547 7596 c-10 -8 -19 -28 -19 -44 -1 -25 14 -46 88 -120 99 -100
122 -112 161 -87 22 15 24 22 20 52 -5 28 -26 55 -96 124 -92 92 -116 104
-154 75z"/>
<path d="M5599 7512 c-105 -106 -115 -129 -68 -164 38 -28 58 -18 151 74 103
103 114 122 87 160 -36 50 -62 40 -170 -70z"/>
<path d="M4395 7042 c-3 -3 -21 -5 -39 -4 -58 5 -88 -65 -46 -103 17 -16 39
-19 138 -20 155 -1 182 8 182 67 0 32 -39 63 -70 55 -11 -3 -22 -2 -25 2 -2 5
-24 5 -48 1 -25 -3 -53 -3 -65 1 -11 4 -23 5 -27 1z"/>
<path d="M5794 7040 c-3 -2 -22 -3 -42 -1 -29 2 -42 -3 -58 -21 -22 -24 -22
-30 -10 -65 10 -31 35 -36 161 -38 103 -1 163 11 166 33 0 4 2 15 4 24 4 20
-32 71 -45 63 -5 -3 -11 -1 -15 4 -3 7 -15 7 -29 1 -13 -5 -26 -6 -29 -3 -7 6
-97 10 -103 3z"/>
<path d="M4711 6614 c-30 -22 -170 -164 -180 -184 -20 -39 26 -94 69 -83 10 3
59 47 109 98 106 107 116 141 54 174 -27 14 -24 14 -52 -5z"/>
<path d="M5526 6606 c-42 -41 -36 -53 91 -183 63 -64 76 -73 107 -73 29 0 39
5 47 24 19 40 4 67 -88 157 -103 101 -122 111 -157 75z"/>
<path d="M8341 7970 c-51 -12 -79 -38 -163 -151 -43 -57 -81 -108 -86 -114 -4
-5 -21 -28 -37 -50 -17 -22 -34 -45 -40 -51 -5 -6 -17 -21 -25 -34 -16 -24
-143 -196 -163 -220 -9 -12 -237 -317 -279 -375 -4 -5 -19 -24 -33 -41 -69
-87 -76 -167 -23 -263 18 -31 38 -69 46 -86 9 -16 24 -42 34 -57 11 -16 16
-28 13 -28 -3 0 2 -12 13 -27 11 -16 27 -46 38 -68 10 -22 20 -42 23 -45 4 -3
13 -18 21 -35 8 -16 27 -51 42 -77 15 -27 24 -48 20 -48 -4 0 -2 -4 4 -8 8 -6
181 -319 277 -502 16 -30 41 -77 57 -105 15 -27 47 -86 70 -130 24 -44 51 -94
61 -111 10 -18 41 -76 70 -130 28 -55 60 -112 69 -129 10 -16 37 -66 60 -110
24 -44 82 -152 130 -240 48 -88 106 -196 130 -240 24 -44 60 -111 82 -148 21
-38 38 -72 38 -77 0 -4 18 -25 40 -46 29 -29 53 -42 89 -49 80 -16 1876 -12
1924 4 36 12 97 64 97 82 0 4 5 20 12 36 6 15 11 31 10 35 -1 3 -4 21 -7 40
-6 32 -55 123 -85 156 -14 16 -42 56 -65 94 -5 9 -31 46 -57 83 -27 36 -48 70
-48 75 0 6 -3 10 -7 10 -5 0 -21 21 -38 48 -16 26 -35 54 -42 62 -7 8 -73 103
-147 210 -75 107 -140 202 -146 210 -11 16 -111 160 -248 360 -124 179 -231
334 -240 345 -37 49 -82 117 -82 125 0 6 -3 10 -7 10 -5 0 -24 25 -43 55 -19
30 -38 55 -42 55 -5 0 -8 6 -8 13 0 6 -14 28 -30 47 -16 19 -30 40 -30 47 0 6
-3 13 -8 15 -11 4 -192 266 -192 277 0 5 -4 11 -8 13 -4 2 -39 48 -77 103 -38
55 -72 102 -75 105 -4 3 -9 12 -13 20 -5 12 -145 214 -297 430 -6 8 -57 81
-113 162 -56 81 -124 180 -152 219 -27 39 -54 78 -60 88 -34 55 -99 133 -123
145 -36 19 -89 25 -131 16z m58 -510 c4 -3 14 -16 23 -30 9 -14 53 -77 97
-140 44 -63 106 -153 138 -200 32 -47 62 -90 68 -96 13 -15 127 -180 141 -206
6 -10 21 -30 33 -44 11 -13 21 -26 21 -29 0 -4 90 -136 117 -171 4 -5 13 -17
18 -26 24 -37 119 -173 124 -178 14 -12 51 -70 51 -80 0 -5 4 -10 8 -10 4 0
23 -25 41 -55 18 -30 37 -55 41 -55 4 0 13 -13 20 -30 7 -16 16 -30 21 -30 5
0 9 -5 9 -11 0 -6 10 -24 23 -39 12 -15 47 -65 77 -110 30 -45 61 -88 68 -95
6 -8 12 -16 12 -20 0 -3 5 -11 11 -18 6 -7 62 -86 124 -177 63 -91 118 -169
122 -175 5 -5 31 -44 58 -85 28 -41 53 -77 56 -80 6 -5 125 -176 144 -208 6
-9 18 -25 28 -36 9 -11 17 -25 17 -32 0 -7 4 -14 8 -16 5 -1 37 -43 70 -93 34
-49 65 -94 70 -100 17 -21 118 -169 130 -191 7 -13 18 -24 24 -24 6 0 8 -3 4
-7 -4 -5 -314 -8 -689 -8 l-682 -1 -52 95 c-29 52 -53 96 -53 98 0 1 -33 62
-72 135 -40 73 -80 147 -88 163 -8 17 -17 32 -20 35 -3 3 -13 21 -22 40 -10
19 -37 71 -61 115 -59 108 -99 182 -235 434 -63 117 -127 237 -142 265 -16 28
-43 80 -62 116 -18 36 -35 67 -38 70 -5 5 -10 15 -78 144 -20 39 -39 73 -42
76 -3 3 -13 21 -22 40 -10 19 -37 71 -61 115 -23 44 -65 121 -91 170 -27 50
-53 95 -58 102 -5 7 -6 18 -2 25 9 15 86 121 94 128 3 3 21 27 40 55 19 27 41
56 48 65 11 12 85 112 170 229 9 13 22 29 27 35 6 7 21 27 35 46 13 19 28 40
32 45 5 6 25 32 45 59 32 44 37 47 46 30 6 -11 13 -21 16 -24z"/>
<path d="M2804 3650 c-14 -5 -16 -74 -16 -630 1 -344 1 -658 1 -697 l1 -73 94
0 94 0 0 293 c0 160 1 311 1 333 l1 42 166 -2 c91 0 168 2 171 7 2 4 9 4 15 1
6 -4 84 -8 172 -8 l161 -1 2 -320 c0 -176 1 -326 2 -332 1 -10 27 -13 94 -13
l93 0 0 700 c0 385 -2 700 -5 701 -27 4 -156 3 -169 -2 -15 -6 -17 -33 -17
-288 1 -295 1 -292 -40 -281 -5 2 -19 2 -30 1 -66 -6 -485 -5 -485 1 0 4 -6 5
-12 3 -23 -9 -98 -11 -109 -4 -8 5 -12 88 -13 290 l-1 283 -78 0 c-43 1 -85
-1 -93 -4z"/>
<path d="M4819 3650 c-1 -3 -3 -319 -4 -702 l-1 -698 450 0 451 0 1 80 1 80
-356 2 -356 3 -1 251 0 251 114 -1 c63 0 116 2 119 7 2 4 9 4 15 1 15 -9 291
-9 306 0 6 3 13 3 15 -1 4 -7 56 -9 90 -4 4 1 7 36 5 79 -3 73 -4 77 -25 76
-13 0 -23 3 -23 7 0 4 -15 3 -34 -1 -19 -4 -40 -4 -47 1 -7 4 -17 5 -22 2 -11
-7 -446 -7 -453 0 -3 3 -18 2 -33 -3 l-27 -7 0 206 c0 113 3 208 7 211 4 3
160 5 347 4 l341 0 3 69 c2 38 0 74 -4 80 -6 11 -876 18 -879 7z"/>
<path d="M7018 3652 c-13 -3 -31 -34 -42 -72 -9 -29 -32 -93 -46 -125 -10 -22
-34 -85 -55 -140 -20 -55 -41 -111 -47 -125 -7 -14 -12 -27 -13 -30 -1 -3 -7
-18 -13 -33 -7 -16 -12 -31 -12 -33 0 -3 -11 -33 -24 -67 -14 -34 -61 -159
-106 -277 -45 -118 -94 -248 -111 -287 -16 -40 -29 -79 -29 -88 0 -8 -4 -15
-8 -15 -4 0 -8 -10 -9 -22 -1 -11 -8 -25 -15 -29 -7 -5 -10 -9 -6 -9 4 0 3
-11 -2 -25 l-10 -25 100 0 c55 0 100 1 100 3 0 1 12 34 26 72 14 39 27 75 28
80 1 6 4 15 8 20 3 6 11 26 16 45 6 19 19 58 29 85 l19 50 316 3 316 2 16 -42
c9 -24 38 -104 64 -178 l48 -135 97 -3 c53 -1 97 1 97 5 0 4 -14 44 -31 88
-43 112 -54 141 -82 215 -29 76 -98 256 -134 350 -14 36 -34 88 -43 115 -10
28 -27 73 -38 100 -11 28 -40 104 -65 170 -25 66 -64 167 -86 225 -22 58 -41
111 -41 118 0 6 -6 12 -12 13 -40 3 -187 4 -200 1z m118 -254 c9 -29 20 -57
24 -63 4 -5 10 -19 13 -30 7 -28 135 -376 147 -400 5 -11 18 -46 29 -77 l19
-58 -36 0 c-223 -3 -465 -1 -469 3 -4 5 18 75 44 137 3 8 7 20 9 25 1 6 30 84
65 175 34 91 62 171 62 178 0 6 4 12 9 12 4 0 7 3 6 8 -3 11 46 142 54 142 3
0 14 -24 24 -52z"/>
<path d="M8350 3650 c-4 -3 -7 -39 -6 -80 l1 -75 235 -1 c129 -1 241 -2 248
-3 9 -1 13 -17 13 -53 0 -29 0 -62 1 -73 0 -11 0 -36 -1 -55 -1 -19 -1 -43 -1
-52 0 -10 0 -31 0 -48 -1 -59 -1 -105 0 -125 1 -11 1 -26 1 -32 -1 -23 0 -153
1 -170 0 -10 0 -34 -1 -53 -1 -19 -1 -43 -1 -52 0 -10 0 -31 0 -48 -1 -59 -1
-105 0 -125 1 -11 1 -26 1 -32 -3 -109 -2 -153 2 -160 3 -4 2 -26 -2 -48 -4
-22 -4 -51 -1 -65 4 -14 2 -31 -3 -37 -7 -10 12 -13 92 -13 l101 0 0 620 0
620 23 1 c12 1 123 2 247 3 l225 1 3 78 c3 68 1 77 -15 78 -73 4 -1157 3
-1163 -1z"/>
<path d="M4219 2478 c0 -7 -1 -60 -1 -118 l-1 -105 99 0 98 0 1 118 1 117 -98
0 c-71 0 -98 -3 -99 -12z"/>
<path d="M6049 2478 c-4 -68 -3 -212 2 -219 3 -6 48 -8 100 -7 l94 3 0 115 0
115 -97 3 c-74 2 -98 0 -99 -10z"/>
<path d="M7941 2390 c1 -56 -1 -104 -5 -107 -3 -3 -1 -12 5 -20 8 -9 39 -13
105 -13 l94 0 0 120 0 120 -100 0 -101 0 2 -100z"/>
</g>
</svg>
