<svg height="496pt" viewBox="0 0 496 496" width="496pt" xmlns="http://www.w3.org/2000/svg"><path d="m80 80h16v16h-16zm0 0"/><path d="m112 80h16v16h-16zm0 0"/><path d="m144 80h16v16h-16zm0 0"/><path d="m256 272h160v-128h-160zm16-112h128v96h-128zm0 0"/><path d="m304 244.945312 73.886719-36.945312-73.886719-36.945312zm16-48 22.113281 11.054688-22.113281 11.054688zm0 0"/><path d="m248 0c-53.214844 0-103.808594 16.640625-146.535156 48h-53.464844v53.496094c-31.359375 42.710937-48 93.28125-48 146.503906 0 33.808594 6.785156 66.609375 20.0625 97.558594-2.558594 9.746094-4.0625 19.90625-4.0625 30.441406 0 66.167969 53.832031 120 120 120 16.199219 0 31.640625-3.265625 45.753906-9.113281 21.628906 5.992187 43.894532 9.113281 66.246094 9.113281 136.742188 0 248-111.246094 248-248s-111.257812-248-248-248zm-128 468.214844v10.417968c-18.945312-2.945312-36.238281-10.90625-50.359375-22.640624h10.359375c13.230469 0 24-10.769532 24-24 0-4.417969 3.59375-8 8-8 13.230469 0 24-10.769532 24-24 0-13.230469-10.769531-24-24-24h-80c0-29.398438 12.320312-55.9375 32-74.871094v36.398437c0 12.402344 10.078125 22.480469 22.472656 22.480469h3.054688c12.394531 0 22.472656-10.078125 22.472656-22.472656v-13.757813c0-6.488281 5.289062-11.769531 11.777344-11.769531 4.488281 0 8.519531 2.496094 10.527344 6.503906l6.535156 13.070313c3.832031 7.664062 11.535156 12.425781 20.105468 12.425781h14.109376c2.472656 0 4.6875 1.367188 5.792968 3.574219 3.824219 7.664062 11.527344 12.425781 20.097656 12.425781h37.695313c.816406 5.230469 1.359375 10.542969 1.359375 16h-21.414062c-9.3125 0-17.953126 4.625-23.113282 12.367188l-4.257812 6.394531c-2.191406 3.277343-5.855469 5.238281-9.800782 5.238281h-1.636718c-15.3125 0-27.777344 12.464844-27.777344 27.777344 0 4.496094-2.496094 8.527344-6.503906 10.535156l-10.136719 5.0625c-9.480469 4.746094-15.359375 14.257812-15.359375 24.839844zm-65.808594-28.214844c-10.726562-13.679688-18.046875-30.078125-20.832031-48h78.640625c4.40625 0 8 3.585938 8 8s-3.59375 8-8 8c-13.230469 0-24 10.769531-24 24 0 4.414062-3.59375 8-8 8zm25.808594-151.496094c16.183594-10.390625 35.375-16.503906 56-16.503906 46.175781 0 85.375 30.273438 98.910156 72h-33.964844c-2.472656 0-4.6875-1.367188-5.792968-3.574219-3.824219-7.664062-11.527344-12.425781-20.097656-12.425781h-14.109376c-2.472656 0-4.6875-1.367188-5.792968-3.574219l-6.535156-13.074219c-4.730469-9.472656-14.25-15.351562-24.839844-15.351562-15.3125 0-27.777344 12.464844-27.777344 27.777344v13.757812c0 3.570313-2.902344 6.464844-6.472656 6.464844h-3.054688c-3.570312 0-6.472656-2.894531-6.472656-6.472656zm56-32.503906c-27.03125 0-51.921875 9.089844-72 24.222656v-152.222656h368v224h-178.414062c-11.152344-54.710938-59.632813-96-117.585938-96zm344-8c0 42.808594-11.695312 82.910156-32 117.367188v-234.734376c20.304688 34.457032 32 74.558594 32 117.367188zm-232-232c42.808594 0 82.910156 11.695312 117.367188 32h-234.710938c35.464844-20.902344 75.511719-32 117.34375-32zm141.070312 48c16.113282 12.382812 30.546876 26.816406 42.929688 42.929688v5.070312h-368v-48zm-373.070312 184c0-41.839844 11.105469-81.886719 32-117.34375v164.03125c-7.785156 8.417969-14.351562 17.921875-19.488281 28.296875-8.265625-24.089844-12.511719-49.214844-12.511719-74.984375zm120 220.214844c0-4.488282 2.496094-8.519532 6.503906-10.527344l10.136719-5.0625c9.480469-4.746094 15.359375-14.265625 15.359375-24.847656 0-6.496094 5.289062-11.777344 11.777344-11.777344h1.636718c9.3125 0 17.953126-4.625 23.113282-12.367188l4.257812-6.394531c2.191406-3.277343 5.855469-5.238281 9.800782-5.238281h20.054687c-7.738281 49.753906-50.746094 88-102.640625 88zm112 11.785156c-15.089844 0-30.136719-1.585938-44.960938-4.519531 31.929688-21.585938 52.960938-58.121094 52.960938-99.480469 0-2.703125-.230469-5.34375-.40625-8h190.886719c-40.703125 67.078125-114.441407 112-198.480469 112zm0 0"/><path d="m80 144h160v16h-160zm0 0"/><path d="m80 176h16v16h-16zm0 0"/><path d="m112 176h128v16h-128zm0 0"/><path d="m224 208h16v16h-16zm0 0"/><path d="m80 208h128v16h-128zm0 0"/><path d="m256 288h160v16h-160zm0 0"/><path d="m400 320h16v16h-16zm0 0"/><path d="m256 320h128v16h-128zm0 0"/></svg>