<svg height='100px' width='100px'  fill="#000000" xmlns="http://www.w3.org/2000/svg" viewBox="0 0 100 100" x="0px" y="0px"><title>Creator Icon_37</title><path d="M39.73828,29.78613V46.72406a4.38141,4.38141,0,0,0-2.41309-.726H34.63867a.99942.99942,0,0,0-1,1v11.2998a4.47267,4.47267,0,0,0,1.38379,3.22754L45.71387,71.68848a1.0002,1.0002,0,1,0,1.37891-1.44922L36.40039,60.07617a2.46378,2.46378,0,0,1-.76172-1.77832V47.998H37.3252a2.41521,2.41521,0,0,1,2.41309,2.41309v7.04492a1,1,0,0,0,2,0V29.78613a1.83252,1.83252,0,0,1,3.665,0V44.45605a1,1,0,0,0,2,0V43.11328a1.65088,1.65088,0,1,1,3.30176,0v1.34277a1,1,0,0,0,2,0V43.11328a1.65039,1.65039,0,1,1,3.30078,0v1.34277a1,1,0,0,0,2,0V43.11328a1.65088,1.65088,0,1,1,3.30176,0V64.29883l-2.46191,3.418a1.00115,1.00115,0,0,0-.18848.584v3.583a1,1,0,0,0,2,0V68.623l2.46191-3.418a1.00115,1.00115,0,0,0,.18848-.584V43.11328a3.64069,3.64069,0,0,0-6.3017-2.49536,3.61644,3.61644,0,0,0-5.3009,0,3.57719,3.57719,0,0,0-4.3017-.74316V29.78613a3.83252,3.83252,0,0,0-7.665,0Z"></path><path d="M44.57129,20.37012v-3.583a1,1,0,0,0-2,0v3.583a1,1,0,1,0,2,0Z"></path><path d="M51.86328,18.917l-2.5332,2.5332a.99989.99989,0,1,0,1.41406,1.41406l2.5332-2.5332A.99989.99989,0,0,0,51.86328,18.917Z"></path><path d="M35.875,34.90527l-2.5332,2.53418a.99989.99989,0,1,0,1.41406,1.41406l2.5332-2.53418A.99989.99989,0,0,0,35.875,34.90527Z"></path><path d="M51.82324,28.88477a.99942.99942,0,0,0,1,1h3.583a1,1,0,0,0,0-2h-3.583A.99942.99942,0,0,0,51.82324,28.88477Z"></path><path d="M29.21191,28.88379a.99942.99942,0,0,0,1,1h3.583a1,1,0,0,0,0-2h-3.583A.99942.99942,0,0,0,29.21191,28.88379Z"></path><path d="M49.32715,36.31738l2.53418,2.53418a.99989.99989,0,0,0,1.41406-1.41406l-2.53418-2.53418a.99989.99989,0,0,0-1.41406,1.41406Z"></path><path d="M34.75488,18.91211a.99989.99989,0,0,0-1.41406,1.41406l2.5332,2.53418a.99989.99989,0,0,0,1.41406-1.41406Z"></path><path d="M70.78809,83.21289V74.498a.99942.99942,0,0,0-1-1H41.90039a.99942.99942,0,0,0-1,1v8.71484a.99942.99942,0,0,0,1,1h27.8877A.99942.99942,0,0,0,70.78809,83.21289Zm-2-1H42.90039V75.498h25.8877Z"></path><rect x="65.57581" y="77.42731" width="1.96082" height="2.83234"></rect></svg>