<svg height='100px' width='100px'  fill="#000000" xmlns="http://www.w3.org/2000/svg" xmlns:xlink="http://www.w3.org/1999/xlink" version="1.1" baseProfile="basic" x="0px" y="0px" viewBox="0 0 100 100" xml:space="preserve"><path d="M70.8,41.4c-0.3-0.4-0.7-0.6-1.2-0.6c-0.5,0-0.9,0.2-1.2,0.6l-6.2,8.3c-0.3,0.5-0.4,1.1-0.1,1.6l10.9,20.1  c0.3,0.5,0.8,0.8,1.3,0.8h15.1c0.6,0,1.1-0.3,1.3-0.8c0.3-0.5,0.2-1.1-0.1-1.5L70.8,41.4z M75.1,69.1l-10-18.5l4.4-5.9l16.9,24.3  H75.1z M66.2,72.1c0.5,0,1-0.3,1.3-0.7c0.3-0.5,0.3-1,0-1.5L44.8,28c-0.2-0.5-0.8-0.8-1.3-0.8c-0.6,0-1,0.3-1.3,0.7L29.7,49.4  l-5.3-5.3c-0.3-0.3-0.8-0.5-1.3-0.4S22.2,44,22,44.5L9.7,70c-0.2,0.5-0.2,1,0.1,1.5c0.3,0.4,0.8,0.7,1.3,0.7H66.2z M23.7,47.7  l5.2,5.2c0.3,0.3,0.8,0.5,1.3,0.4c0.5-0.1,0.9-0.3,1.1-0.7l12.2-20.9l20.2,37.4H13.4L23.7,47.7z"></path></svg>